<mxfile host="app.diagrams.net" modified="2023-11-13T15:04:18.396Z" agent="Mozilla/5.0 (Windows NT 10.0; Win64; x64) AppleWebKit/537.36 (KHTML, like Gecko) Chrome/110.0.0.0 Safari/537.36" version="22.1.0" etag="dwohIpJMWBK00WnHJ_wg" type="device">
  <diagram id="mT2fFr7OGuovpzgChT6H" name="Página-1">
    <mxGraphModel dx="954" dy="559" grid="1" gridSize="10" guides="1" tooltips="1" connect="1" arrows="1" fold="1" page="1" pageScale="1" pageWidth="827" pageHeight="1169" math="0" shadow="0">
      <root>
        <mxCell id="0" />
        <mxCell id="1" parent="0" />
        <mxCell id="T7NSYiO7Qf57xsm5hxWA-1" value="&lt;font style=&quot;font-size: 18px&quot;&gt;PEREGRINOS(&lt;u style=&quot;border-color: var(--border-color); color: rgb(255, 0, 0);&quot;&gt;DNI_peregrino&lt;/u&gt;, Nombre, Apellidos)&lt;/font&gt;" style="text;html=1;align=left;verticalAlign=middle;resizable=0;points=[];autosize=1;" vertex="1" parent="1">
          <mxGeometry x="240" y="160" width="430" height="40" as="geometry" />
        </mxCell>
        <mxCell id="T7NSYiO7Qf57xsm5hxWA-2" value="&lt;font style=&quot;font-size: 18px&quot;&gt;RECORREN(&lt;u style=&quot;border-color: var(--border-color); color: rgb(255, 0, 0);&quot;&gt;DNI_peregrino&lt;/u&gt;,&amp;nbsp;&lt;u style=&quot;border-color: var(--border-color); color: rgb(255, 0, 0);&quot;&gt;cod_Camino&lt;/u&gt;)&lt;/font&gt;" style="text;html=1;align=left;verticalAlign=middle;resizable=0;points=[];autosize=1;" vertex="1" parent="1">
          <mxGeometry x="244" y="250" width="370" height="40" as="geometry" />
        </mxCell>
        <mxCell id="T7NSYiO7Qf57xsm5hxWA-3" value="&lt;font style=&quot;font-size: 18px&quot;&gt;CAMINOS(&lt;u style=&quot;border-color: var(--border-color); color: rgb(255, 0, 0);&quot;&gt;cod_Camino&lt;/u&gt;, Dirección)&lt;/font&gt;" style="text;html=1;align=left;verticalAlign=middle;resizable=0;points=[];autosize=1;" vertex="1" parent="1">
          <mxGeometry x="240" y="330" width="310" height="40" as="geometry" />
        </mxCell>
        <mxCell id="T7NSYiO7Qf57xsm5hxWA-5" style="edgeStyle=orthogonalEdgeStyle;rounded=0;orthogonalLoop=1;jettySize=auto;html=1;entryX=0.155;entryY=-0.025;entryDx=0;entryDy=0;entryPerimeter=0;" edge="1" parent="1" source="T7NSYiO7Qf57xsm5hxWA-2" target="T7NSYiO7Qf57xsm5hxWA-3">
          <mxGeometry relative="1" as="geometry">
            <Array as="points">
              <mxPoint x="520" y="310" />
              <mxPoint x="288" y="310" />
            </Array>
          </mxGeometry>
        </mxCell>
        <mxCell id="T7NSYiO7Qf57xsm5hxWA-6" style="edgeStyle=orthogonalEdgeStyle;rounded=0;orthogonalLoop=1;jettySize=auto;html=1;entryX=0.137;entryY=1.1;entryDx=0;entryDy=0;entryPerimeter=0;" edge="1" parent="1" source="T7NSYiO7Qf57xsm5hxWA-2" target="T7NSYiO7Qf57xsm5hxWA-1">
          <mxGeometry relative="1" as="geometry" />
        </mxCell>
      </root>
    </mxGraphModel>
  </diagram>
</mxfile>
